# xmcd
#
# Track frame offsets:
#        187
#        13190
#        30015
#        45880
#        60510
#        74905
#        92497
#        107680
#        120075
#        150575
#        165620
#
# Disc length: 2461 seconds
#
# Revision: 3
# Processed by: cddbd v1.5.1PL2 Copyright (c) Steve Scherf et al.
# Submitted via: ExactAudioCopy v0.95b3
#
DISCID=76099b0b
DTITLE=The Jimi Hendrix Experience - Are You Experienced?
DYEAR=1967
DGENRE=Psychedelic Rock
TTITLE0=Purple Haze
TTITLE1=Manic Depression
TTITLE2=Hey Joe
TTITLE3=Love Or Confusion
TTITLE4=May This Be Love
TTITLE5=I Don't Live Today
TTITLE6=The Wind Cries Mary
TTITLE7=Fire
TTITLE8=Third Stone From The Sun
TTITLE9=Foxey Lady
TTITLE10=Are You Experienced?
EXTD=
EXTT0=
EXTT1=
EXTT2=
EXTT3=
EXTT4=
EXTT5=
EXTT6=
EXTT7=
EXTT8=
EXTT9=
EXTT10=
PLAYORDER=
